ffmpeg started on 2025-06-06 at 18:03:37
Report written to "D:\Convert\FFMetrics\reports\ssim_report-6.txt"
Log level: 32
Command line:
ffmpeg -hide_banner -nostdin -i "G:\\\xc0\xed\xe8\xec\xe5\\\xce\xed\xe3\xee\xe8\xed\xe3\xe8\\!_36_\xce\xf1\xe5\xed\xfc_2024\\DreamCast\\\xcf\xee\xe2\xe5\xeb\xe8\xf2\xe5\xeb\xfc \xe4\xe5\xec\xee\xed\xee\xe2 2099\\[DC] Maou 2099 - 11_Telegram_HEVC.mkv" -i "G:\\\xc0\xed\xe8\xec\xe5\\\xce\xed\xe3\xee\xe8\xed\xe3\xe8\\!_36_\xce\xf1\xe5\xed\xfc_2024\\DreamCast\\\xcf\xee\xe2\xe5\xeb\xe8\xf2\xe5\xeb\xfc \xe4\xe5\xec\xee\xed\xee\xe2 2099\\[DC] Maou 2099 - 11_Telegram.mp4" -lavfi "[0:v]settb=AVTB,setpts=PTS-STARTPTS,format=pix_fmts=yuv420p10,fps=24000/1001,scale=1920:1080:flags=bicubic[main];[1:v]settb=AVTB,setpts=PTS-STARTPTS,format=pix_fmts=yuv420p,fps=24000/1001,scale=1920:1080:flags=bicubic[ref];[main][ref]ssim=eof_action=endall:stats_file='D\\:/Convert/FFMetrics/logs/ssim_logfile-6.txt'" -f null -
Input #0, matroska,webm, from 'G:\Аниме\Онгоинги\!_36_Осень_2024\DreamCast\Повелитель демонов 2099\[DC] Maou 2099 - 11_Telegram_HEVC.mkv':
  Metadata:
    COMPATIBLE_BRANDS: isomiso2avc1mp41
    MAJOR_BRAND     : isom
    MINOR_VERSION   : 512
    ENCODER         : Lavf61.7.100
  Duration: 00:23:46.65, start: -0.021000, bitrate: 1290 kb/s
  Chapters:
    Chapter #0:0: start 0.000000, end 90.000000
      Metadata:
        title           : 
    Chapter #0:1: start 90.000000, end 1415.000000
      Metadata:
        title           : 
    Chapter #0:2: start 1415.000000, end 1420.000000
      Metadata:
        title           : 
    Chapter #0:3: start 1420.000000, end 1426.616000
      Metadata:
        title           : 
  Stream #0:0: Video: hevc (Main 10), yuv420p10le(tv, bt709, progressive), 1920x1080 [SAR 1:1 DAR 16:9], 23.98 fps, 23.98 tbr, 1k tbn (default)
      Metadata:
        HANDLER_NAME    : VideoHandler
        VENDOR_ID       : [0][0][0][0]
        ENCODER         : Lavc61.19.100 libx265
        BPS             : 1093508
        DURATION        : 00:23:46.591708333
        NUMBER_OF_FRAMES: 34204
        NUMBER_OF_BYTES : 194998624
        _STATISTICS_WRITING_APP: mkvpropedit v66.0.0 ('Josie') 64-bit
        _STATISTICS_WRITING_DATE_UTC: 2025-06-02 16:21:32
        _STATISTICS_TAGS: BPS DURATION NUMBER_OF_FRAMES NUMBER_OF_BYTES
  Stream #0:1: Audio: aac (LC), 48000 Hz, stereo, fltp (default)
      Metadata:
        HANDLER_NAME    : SoundHandler
        VENDOR_ID       : [0][0][0][0]
        ENCODER         : Lavc61.19.100 aac
        BPS             : 193252
        DURATION        : 00:23:46.645000000
        NUMBER_OF_FRAMES: 66875
        NUMBER_OF_BYTES : 34462890
        _STATISTICS_WRITING_APP: mkvpropedit v66.0.0 ('Josie') 64-bit
        _STATISTICS_WRITING_DATE_UTC: 2025-06-02 16:21:32
        _STATISTICS_TAGS: BPS DURATION NUMBER_OF_FRAMES NUMBER_OF_BYTES
[mov,mp4,m4a,3gp,3g2,mj2 @ 000002b7f6bb41c0] Referenced QT chapter track not found
Input #1, mov,mp4,m4a,3gp,3g2,mj2, from 'G:\Аниме\Онгоинги\!_36_Осень_2024\DreamCast\Повелитель демонов 2099\[DC] Maou 2099 - 11_Telegram.mp4':
  Metadata:
    major_brand     : isom
    minor_version   : 512
    compatible_brands: isomiso2avc1mp41
    encoder         : Lavf61.7.100
  Duration: 00:23:46.62, start: 0.000000, bitrate: 3512 kb/s
  Chapters:
    Chapter #1:0: start 0.000000, end 90.000000
      Metadata:
        title           : 
    Chapter #1:1: start 90.000000, end 1415.000000
      Metadata:
        title           : 
    Chapter #1:2: start 1415.000000, end 1420.000000
      Metadata:
        title           : 
    Chapter #1:3: start 1420.000000, end 1426.616000
      Metadata:
        title           : 
  Stream #1:0[0x1](und): Video: h264 (High) (avc1 / 0x31637661), yuv420p(tv, bt709, progressive), 1920x1080 [SAR 1:1 DAR 16:9], 3364 kb/s, 23.98 fps, 23.98 tbr, 24k tbn (default)
      Metadata:
        handler_name    : VideoHandler
        vendor_id       : [0][0][0][0]
        encoder         : Lavc61.19.101 h264_qsv
  Stream #1:1[0x2](und): Audio: aac (HE-AACv2) (mp4a / 0x6134706D), 48000 Hz, stereo, fltp, 144 kb/s (default)
      Metadata:
        handler_name    : SoundHandler
        vendor_id       : [0][0][0][0]
Stream mapping:
  Stream #0:0 (hevc) -> settb:default
  Stream #1:0 (h264) -> settb:default
  ssim:default -> Stream #0:0 (wrapped_avframe)
  Stream #0:1 -> #0:1 (aac (native) -> pcm_s16le (native))
Output #0, null, to 'pipe:':
  Metadata:
    COMPATIBLE_BRANDS: isomiso2avc1mp41
    MAJOR_BRAND     : isom
    MINOR_VERSION   : 512
    encoder         : Lavf61.7.100
  Chapters:
    Chapter #0:0: start 0.021000, end 90.021000
      Metadata:
        title           : 
    Chapter #0:1: start 90.021000, end 1415.021000
      Metadata:
        title           : 
    Chapter #0:2: start 1415.021000, end 1420.021000
      Metadata:
        title           : 
    Chapter #0:3: start 1420.021000, end 1426.637000
      Metadata:
        title           : 
  Stream #0:0: Video: wrapped_avframe, yuv420p10le(tv, bt709, progressive), 1920x1080 [SAR 1:1 DAR 16:9], q=2-31, 200 kb/s, 23.98 fps, 23.98 tbn
      Metadata:
        encoder         : Lavc61.19.100 wrapped_avframe
  Stream #0:1: Audio: pcm_s16le, 48000 Hz, stereo, s16, 1536 kb/s (default)
      Metadata:
        HANDLER_NAME    : SoundHandler
        VENDOR_ID       : [0][0][0][0]
        _STATISTICS_TAGS: BPS DURATION NUMBER_OF_FRAMES NUMBER_OF_BYTES
        BPS             : 193252
        DURATION        : 00:23:46.645000000
        NUMBER_OF_FRAMES: 66875
        NUMBER_OF_BYTES : 34462890
        _STATISTICS_WRITING_APP: mkvpropedit v66.0.0 ('Josie') 64-bit
        _STATISTICS_WRITING_DATE_UTC: 2025-06-02 16:21:32
        encoder         : Lavc61.19.100 pcm_s16le
frame=  186 fps=0.0 q=-0.0 size=N/A time=00:00:07.75 bitrate=N/A speed=14.8x    frame=  326 fps=315 q=-0.0 size=N/A time=00:00:13.59 bitrate=N/A speed=13.1x    frame=  458 fps=294 q=-0.0 size=N/A time=00:00:19.10 bitrate=N/A speed=12.3x    frame=  648 fps=314 q=-0.0 size=N/A time=00:00:27.02 bitrate=N/A speed=13.1x    frame=  827 fps=320 q=-0.0 size=N/A time=00:00:34.49 bitrate=N/A speed=13.3x    frame= 1017 fps=329 q=-0.0 size=N/A time=00:00:42.41 bitrate=N/A speed=13.7x    frame= 1217 fps=336 q=-0.0 size=N/A time=00:00:50.75 bitrate=N/A speed=  14x    frame= 1456 fps=353 q=-0.0 size=N/A time=00:01:00.72 bitrate=N/A speed=14.7x    frame= 1601 fps=344 q=-0.0 size=N/A time=00:01:06.77 bitrate=N/A speed=14.4x    frame= 1790 fps=347 q=-0.0 size=N/A time=00:01:14.65 bitrate=N/A speed=14.5x    frame= 1993 fps=351 q=-0.0 size=N/A time=00:01:23.12 bitrate=N/A speed=14.6x    frame= 2173 fps=351 q=-0.0 size=N/A time=00:01:30.63 bitrate=N/A speed=14.6x    frame= 2352 fps=351 q=-0.0 size=N/A time=00:01:38.09 bitrate=N/A speed=14.6x    frame= 2629 fps=364 q=-0.0 size=N/A time=00:01:49.65 bitrate=N/A speed=15.2x    frame= 2892 fps=374 q=-0.0 size=N/A time=00:02:00.62 bitrate=N/A speed=15.6x    frame= 3196 fps=387 q=-0.0 size=N/A time=00:02:13.29 bitrate=N/A speed=16.1x    frame= 3458 fps=395 q=-0.0 size=N/A time=00:02:24.22 bitrate=N/A speed=16.5x    frame= 3752 fps=404 q=-0.0 size=N/A time=00:02:36.48 bitrate=N/A speed=16.9x    frame= 4001 fps=408 q=-0.0 size=N/A time=00:02:46.87 bitrate=N/A speed=  17x    frame= 4281 fps=415 q=-0.0 size=N/A time=00:02:58.55 bitrate=N/A speed=17.3x    frame= 4540 fps=419 q=-0.0 size=N/A time=00:03:09.35 bitrate=N/A speed=17.5x    frame= 4781 fps=421 q=-0.0 size=N/A time=00:03:19.40 bitrate=N/A speed=17.6x    frame= 5060 fps=426 q=-0.0 size=N/A time=00:03:31.04 bitrate=N/A speed=17.8x    frame= 5322 fps=430 q=-0.0 size=N/A time=00:03:41.97 bitrate=N/A speed=17.9x    frame= 5601 fps=434 q=-0.0 size=N/A time=00:03:53.60 bitrate=N/A speed=18.1x    frame= 5839 fps=435 q=-0.0 size=N/A time=00:04:03.53 bitrate=N/A speed=18.2x    frame= 6070 fps=436 q=-0.0 size=N/A time=00:04:13.16 bitrate=N/A speed=18.2x    frame= 6353 fps=440 q=-0.0 size=N/A time=00:04:24.97 bitrate=N/A speed=18.4x    frame= 6645 fps=444 q=-0.0 size=N/A time=00:04:37.15 bitrate=N/A speed=18.5x    frame= 6871 fps=444 q=-0.0 size=N/A time=00:04:46.57 bitrate=N/A speed=18.5x    frame= 7132 fps=446 q=-0.0 size=N/A time=00:04:57.46 bitrate=N/A speed=18.6x    frame= 7414 fps=449 q=-0.0 size=N/A time=00:05:09.22 bitrate=N/A speed=18.7x    frame= 7670 fps=451 q=-0.0 size=N/A time=00:05:19.90 bitrate=N/A speed=18.8x    frame= 7925 fps=452 q=-0.0 size=N/A time=00:05:30.53 bitrate=N/A speed=18.8x    frame= 8174 fps=453 q=-0.0 size=N/A time=00:05:40.92 bitrate=N/A speed=18.9x    frame= 8423 fps=454 q=-0.0 size=N/A time=00:05:51.30 bitrate=N/A speed=18.9x    frame= 8674 fps=455 q=-0.0 size=N/A time=00:06:01.77 bitrate=N/A speed=  19x    frame= 8941 fps=456 q=-0.0 size=N/A time=00:06:12.91 bitrate=N/A speed=  19x    frame= 9207 fps=458 q=-0.0 size=N/A time=00:06:24.00 bitrate=N/A speed=19.1x    frame= 9458 fps=458 q=-0.0 size=N/A time=00:06:34.47 bitrate=N/A speed=19.1x    frame= 9734 fps=460 q=-0.0 size=N/A time=00:06:45.98 bitrate=N/A speed=19.2x    frame= 9989 fps=461 q=-0.0 size=N/A time=00:06:56.62 bitrate=N/A speed=19.2x    frame=10249 fps=462 q=-0.0 size=N/A time=00:07:07.46 bitrate=N/A speed=19.3x    frame=10534 fps=464 q=-0.0 size=N/A time=00:07:19.35 bitrate=N/A speed=19.4x    frame=10794 fps=465 q=-0.0 size=N/A time=00:07:30.19 bitrate=N/A speed=19.4x    frame=11062 fps=466 q=-0.0 size=N/A time=00:07:41.37 bitrate=N/A speed=19.4x    frame=11321 fps=467 q=-0.0 size=N/A time=00:07:52.18 bitrate=N/A speed=19.5x    frame=11589 fps=468 q=-0.0 size=N/A time=00:08:03.35 bitrate=N/A speed=19.5x    frame=11838 fps=469 q=-0.0 size=N/A time=00:08:13.74 bitrate=N/A speed=19.5x    frame=12095 fps=469 q=-0.0 size=N/A time=00:08:24.46 bitrate=N/A speed=19.6x    frame=12363 fps=470 q=-0.0 size=N/A time=00:08:35.64 bitrate=N/A speed=19.6x    frame=12594 fps=470 q=-0.0 size=N/A time=00:08:45.27 bitrate=N/A speed=19.6x    frame=12866 fps=471 q=-0.0 size=N/A time=00:08:56.61 bitrate=N/A speed=19.6x    frame=13145 fps=472 q=-0.0 size=N/A time=00:09:08.25 bitrate=N/A speed=19.7x    frame=13407 fps=473 q=-0.0 size=N/A time=00:09:19.18 bitrate=N/A speed=19.7x    frame=13658 fps=473 q=-0.0 size=N/A time=00:09:29.65 bitrate=N/A speed=19.7x    frame=13933 fps=474 q=-0.0 size=N/A time=00:09:41.12 bitrate=N/A speed=19.8x    frame=14185 fps=474 q=-0.0 size=N/A time=00:09:51.63 bitrate=N/A speed=19.8x    frame=14446 fps=475 q=-0.0 size=N/A time=00:10:02.51 bitrate=N/A speed=19.8x    frame=14682 fps=475 q=-0.0 size=N/A time=00:10:12.36 bitrate=N/A speed=19.8x    frame=14934 fps=475 q=-0.0 size=N/A time=00:10:22.87 bitrate=N/A speed=19.8x    frame=15168 fps=474 q=-0.0 size=N/A time=00:10:32.63 bitrate=N/A speed=19.8x    frame=15444 fps=475 q=-0.0 size=N/A time=00:10:44.14 bitrate=N/A speed=19.8x    frame=15717 fps=476 q=-0.0 size=N/A time=00:10:55.52 bitrate=N/A speed=19.9x    frame=15993 fps=477 q=-0.0 size=N/A time=00:11:07.04 bitrate=N/A speed=19.9x    frame=16263 fps=478 q=-0.0 size=N/A time=00:11:18.30 bitrate=N/A speed=19.9x    frame=16502 fps=478 q=-0.0 size=N/A time=00:11:28.27 bitrate=N/A speed=19.9x    frame=16739 fps=477 q=-0.0 size=N/A time=00:11:38.15 bitrate=N/A speed=19.9x    frame=17002 fps=478 q=-0.0 size=N/A time=00:11:49.12 bitrate=N/A speed=19.9x    frame=17268 fps=478 q=-0.0 size=N/A time=00:12:00.21 bitrate=N/A speed=19.9x    frame=17540 fps=479 q=-0.0 size=N/A time=00:12:11.56 bitrate=N/A speed=  20x    frame=17796 fps=479 q=-0.0 size=N/A time=00:12:22.24 bitrate=N/A speed=  20x    frame=18048 fps=479 q=-0.0 size=N/A time=00:12:32.75 bitrate=N/A speed=  20x    frame=18261 fps=479 q=-0.0 size=N/A time=00:12:41.63 bitrate=N/A speed=  20x    frame=18506 fps=479 q=-0.0 size=N/A time=00:12:51.85 bitrate=N/A speed=  20x    frame=18785 fps=479 q=-0.0 size=N/A time=00:13:03.49 bitrate=N/A speed=  20x    frame=18997 fps=478 q=-0.0 size=N/A time=00:13:12.33 bitrate=N/A speed=  20x    frame=19258 fps=479 q=-0.0 size=N/A time=00:13:23.21 bitrate=N/A speed=  20x    frame=19495 fps=478 q=-0.0 size=N/A time=00:13:33.10 bitrate=N/A speed=  20x    frame=19696 fps=477 q=-0.0 size=N/A time=00:13:41.48 bitrate=N/A speed=19.9x    frame=19928 fps=477 q=-0.0 size=N/A time=00:13:51.16 bitrate=N/A speed=19.9x    frame=20140 fps=476 q=-0.0 size=N/A time=00:14:00.00 bitrate=N/A speed=19.9x    frame=20413 fps=477 q=-0.0 size=N/A time=00:14:11.39 bitrate=N/A speed=19.9x    frame=20619 fps=476 q=-0.0 size=N/A time=00:14:19.98 bitrate=N/A speed=19.9x    frame=20893 fps=477 q=-0.0 size=N/A time=00:14:31.41 bitrate=N/A speed=19.9x    frame=21174 fps=478 q=-0.0 size=N/A time=00:14:43.13 bitrate=N/A speed=19.9x    frame=21371 fps=476 q=-0.0 size=N/A time=00:14:51.34 bitrate=N/A speed=19.9x    frame=21637 fps=477 q=-0.0 size=N/A time=00:15:02.44 bitrate=N/A speed=19.9x    frame=21917 fps=478 q=-0.0 size=N/A time=00:15:14.12 bitrate=N/A speed=19.9x    frame=22174 fps=478 q=-0.0 size=N/A time=00:15:24.84 bitrate=N/A speed=19.9x    frame=22436 fps=478 q=-0.0 size=N/A time=00:15:35.76 bitrate=N/A speed=19.9x    frame=22710 fps=479 q=-0.0 size=N/A time=00:15:47.19 bitrate=N/A speed=  20x    frame=22866 fps=477 q=-0.0 size=N/A time=00:15:53.70 bitrate=N/A speed=19.9x    frame=23119 fps=477 q=-0.0 size=N/A time=00:16:04.25 bitrate=N/A speed=19.9x    frame=23414 fps=478 q=-0.0 size=N/A time=00:16:16.55 bitrate=N/A speed=19.9x    frame=23686 fps=479 q=-0.0 size=N/A time=00:16:27.90 bitrate=N/A speed=  20x    frame=23978 fps=479 q=-0.0 size=N/A time=00:16:40.08 bitrate=N/A speed=  20x    frame=24166 fps=478 q=-0.0 size=N/A time=00:16:47.92 bitrate=N/A speed=19.9x    frame=24399 fps=478 q=-0.0 size=N/A time=00:16:57.64 bitrate=N/A speed=19.9x    frame=24661 fps=478 q=-0.0 size=N/A time=00:17:08.56 bitrate=N/A speed=19.9x    frame=24947 fps=479 q=-0.0 size=N/A time=00:17:20.49 bitrate=N/A speed=  20x    frame=25225 fps=480 q=-0.0 size=N/A time=00:17:32.09 bitrate=N/A speed=  20x    frame=25503 fps=480 q=-0.0 size=N/A time=00:17:43.68 bitrate=N/A speed=  20x    frame=25778 fps=481 q=-0.0 size=N/A time=00:17:55.15 bitrate=N/A speed=  20x    frame=26054 fps=481 q=-0.0 size=N/A time=00:18:06.66 bitrate=N/A speed=20.1x    frame=26320 fps=481 q=-0.0 size=N/A time=00:18:17.76 bitrate=N/A speed=20.1x    frame=26581 fps=482 q=-0.0 size=N/A time=00:18:28.64 bitrate=N/A speed=20.1x    frame=26840 fps=482 q=-0.0 size=N/A time=00:18:39.45 bitrate=N/A speed=20.1x    frame=27109 fps=482 q=-0.0 size=N/A time=00:18:50.67 bitrate=N/A speed=20.1x    frame=27285 fps=481 q=-0.0 size=N/A time=00:18:58.01 bitrate=N/A speed=20.1x    frame=27565 fps=481 q=-0.0 size=N/A time=00:19:09.69 bitrate=N/A speed=20.1x    frame=27763 fps=481 q=-0.0 size=N/A time=00:19:17.94 bitrate=N/A speed=  20x    frame=27979 fps=480 q=-0.0 size=N/A time=00:19:26.95 bitrate=N/A speed=  20x    frame=28247 fps=480 q=-0.0 size=N/A time=00:19:38.13 bitrate=N/A speed=  20x    frame=28493 fps=480 q=-0.0 size=N/A time=00:19:48.39 bitrate=N/A speed=  20x    frame=28732 fps=480 q=-0.0 size=N/A time=00:19:58.36 bitrate=N/A speed=  20x    frame=28994 fps=480 q=-0.0 size=N/A time=00:20:09.29 bitrate=N/A speed=  20x    frame=29174 fps=479 q=-0.0 size=N/A time=00:20:16.79 bitrate=N/A speed=  20x    frame=29334 fps=478 q=-0.0 size=N/A time=00:20:23.47 bitrate=N/A speed=19.9x    frame=29573 fps=478 q=-0.0 size=N/A time=00:20:33.44 bitrate=N/A speed=19.9x    frame=29830 fps=478 q=-0.0 size=N/A time=00:20:44.15 bitrate=N/A speed=19.9x    frame=30056 fps=478 q=-0.0 size=N/A time=00:20:53.58 bitrate=N/A speed=19.9x    frame=30299 fps=478 q=-0.0 size=N/A time=00:21:03.72 bitrate=N/A speed=19.9x    frame=30512 fps=477 q=-0.0 size=N/A time=00:21:12.60 bitrate=N/A speed=19.9x    frame=30744 fps=477 q=-0.0 size=N/A time=00:21:22.28 bitrate=N/A speed=19.9x    frame=31001 fps=477 q=-0.0 size=N/A time=00:21:33.00 bitrate=N/A speed=19.9x    frame=31288 fps=478 q=-0.0 size=N/A time=00:21:44.97 bitrate=N/A speed=19.9x    frame=31533 fps=478 q=-0.0 size=N/A time=00:21:55.18 bitrate=N/A speed=19.9x    frame=31796 fps=478 q=-0.0 size=N/A time=00:22:06.15 bitrate=N/A speed=19.9x    frame=32022 fps=478 q=-0.0 size=N/A time=00:22:15.58 bitrate=N/A speed=19.9x    frame=32259 fps=477 q=-0.0 size=N/A time=00:22:25.46 bitrate=N/A speed=19.9x    frame=32531 fps=478 q=-0.0 size=N/A time=00:22:36.81 bitrate=N/A speed=19.9x    frame=32803 fps=478 q=-0.0 size=N/A time=00:22:48.15 bitrate=N/A speed=19.9x    frame=33040 fps=478 q=-0.0 size=N/A time=00:22:58.04 bitrate=N/A speed=19.9x    frame=33286 fps=478 q=-0.0 size=N/A time=00:23:08.30 bitrate=N/A speed=19.9x    frame=33511 fps=478 q=-0.0 size=N/A time=00:23:17.68 bitrate=N/A speed=19.9x    frame=33727 fps=477 q=-0.0 size=N/A time=00:23:26.69 bitrate=N/A speed=19.9x    frame=33962 fps=477 q=-0.0 size=N/A time=00:23:36.49 bitrate=N/A speed=19.9x    [Parsed_ssim_10 @ 000002b7fdfa2100] SSIM Y:0.994980 (22.992620) U:0.992653 (21.339104) V:0.992680 (21.354612) All:0.994209 (22.372126)
[out#0/null @ 000002b7f6ba34c0] video:14697KiB audio:267500KiB subtitle:0KiB other streams:0KiB global headers:0KiB muxing overhead: unknown
frame=34204 fps=477 q=-0.0 Lsize=N/A time=00:23:46.59 bitrate=N/A speed=19.9x    
